# xmcd CD database file
#
# Track frame offsets:
#	150
#	22702
#	46362
#	68012
#	88907
#	110682
#	129862
#	151270
#	173590
#	195382
#	220912
#	226217
#
# Disc length: 3318 seconds
#
# Revision: 11
# Processed by: cddbd v1.5.1PL0 Copyright (c) Steve Scherf et al.
# Submitted via: CDex 1.51
#
DISCID=8f0cf40c
DTITLE=宇多田ヒカル - DEEP RIVER
DYEAR=2003
DGENRE=R&B
TTITLE0=SAKURAドロップス
TTITLE1=traveling
TTITLE2=幸せになろう
TTITLE3=Deep River
TTITLE4=Letters
TTITLE5=プレイ・ボール
TTITLE6=東京NIGHTS
TTITLE7=A.S.A.P.
TTITLE8=嘘みたいなI Love You
TTITLE9=FINAL DISTANCE
TTITLE10=Bridge (Interlude)
TTITLE11=光
EXTD=YEAR: 2003
EXTT0=
EXTT1=
EXTT2=
EXTT3=
EXTT4=
EXTT5=
EXTT6=
EXTT7=
EXTT8=
EXTT9=
EXTT10=
EXTT11=
PLAYORDER=
